<svg width="88" height="106" viewBox="0 0 88 106" fill="none" xmlns="http://www.w3.org/2000/svg">
<path d="M50.7441 105.479C43.0684 105.479 36.9307 104.204 32.3311 101.655C27.7607 99.1064 25.3145 95.5322 24.9922 90.9326L25.0361 90.625L20.4658 91.0645C16.8916 91.4746 13.8594 90.7129 11.3691 88.7793C8.9082 86.875 7.67773 83.9453 7.67773 79.9902V71.5527C5.33398 70.9375 3.50293 69.7803 2.18457 68.0811C0.866211 66.3525 0.207031 64.3457 0.207031 62.0605C0.207031 59.5996 0.954102 57.0654 2.44824 54.458L7.80957 44.79C7.75098 44.2334 7.70703 43.6621 7.67773 43.0762C7.64844 42.4902 7.63379 41.8457 7.63379 41.1426C7.63379 35.0781 8.58594 29.585 10.4902 24.6631C12.3945 19.7119 15.1045 15.4639 18.6201 11.9189C22.165 8.34473 26.3838 5.60547 31.2764 3.70117C36.1982 1.76758 41.6475 0.800781 47.624 0.800781C53.6299 0.800781 59.0938 1.78223 64.0156 3.74512C68.9668 5.70801 73.2148 8.50586 76.7598 12.1387C80.3047 15.7715 83.0293 20.1221 84.9336 25.1904C86.8672 30.2588 87.834 35.8838 87.834 42.0654C87.834 47.3682 86.8672 52.3193 84.9336 56.9189C83.0293 61.5186 80.3633 65.3271 76.9355 68.3447V89.79C76.9355 94.7412 74.5918 98.5938 69.9043 101.348C65.2461 104.102 58.8594 105.479 50.7441 105.479ZM32.5508 47.5146C35.2461 47.5146 37.4434 46.7236 39.1426 45.1416C40.8418 43.5596 41.6914 41.5381 41.6914 39.0771C41.6914 37.3193 41.1934 35.957 40.1973 34.9902C39.5234 34.3457 39.1865 33.6572 39.1865 32.9248C39.1865 32.3682 39.377 31.9141 39.7578 31.5625C40.168 31.1816 40.666 30.9912 41.252 30.9912C41.8965 30.9912 42.4385 31.1963 42.8779 31.6064C43.0244 31.7236 43.1416 31.8701 43.2295 32.0459C43.3467 32.2217 43.4346 32.3828 43.4932 32.5293C45.2803 32.2949 46.6133 31.6797 47.4922 30.6836C48.3711 29.6582 48.8105 28.2959 48.8105 26.5967C48.8105 26.0107 49.0156 25.5127 49.4258 25.1025C49.8359 24.6631 50.334 24.4434 50.9199 24.4434C51.5059 24.4434 52.0039 24.6631 52.4141 25.1025C52.8242 25.542 53.0293 26.04 53.0293 26.5967C53.0586 31.8408 50.5537 35.0342 45.5146 36.1768C45.6611 36.6455 45.749 37.1436 45.7783 37.6709C45.8369 38.1689 45.8662 38.667 45.8662 39.165C45.8662 41.3916 45.3535 43.3691 44.3281 45.0977C43.3027 46.8262 41.8672 48.1738 40.0215 49.1406C42.1895 50.2539 44.5625 50.8105 47.1406 50.8105C47.6973 50.8105 48.2832 50.7812 48.8984 50.7227C49.543 50.6641 50.1729 50.5762 50.7881 50.459C50.5537 49.7266 50.4365 49.0527 50.4365 48.4375C50.4365 46.123 51.0078 44.1455 52.1504 42.5049C53.293 40.835 54.7139 39.3408 56.4131 38.0225C58.1123 36.6748 59.8115 35.3711 61.5107 34.1113C63.21 32.8223 64.6309 31.416 65.7734 29.8926C66.9453 28.3691 67.5312 26.5674 67.5312 24.4873C67.5312 22.7881 67.1211 21.25 66.3008 19.873C65.5098 18.4961 64.4258 17.3975 63.0488 16.5771C61.7012 15.7568 60.1924 15.3467 58.5225 15.3467C57.6436 15.3467 57.0137 15.3613 56.6328 15.3906C56.252 15.4199 55.9443 15.4639 55.71 15.5225C54.7725 14.4971 53.6592 13.6914 52.3701 13.1055C51.1104 12.5195 49.8506 12.2266 48.5908 12.2266C46.3936 12.2266 44.5918 12.8564 43.1855 14.1162C41.8086 15.3467 41.1055 17.002 41.0762 19.082C41.0762 19.7266 40.8711 20.2539 40.4609 20.6641C40.0801 21.0449 39.582 21.2354 38.9668 21.2354C38.293 21.2354 37.751 21.0156 37.3408 20.5762C36.96 20.1367 36.7842 19.5947 36.8135 18.9502C36.8428 18.042 36.96 17.251 37.165 16.5771C37.3994 15.874 37.6484 15.2295 37.9121 14.6436C37.0625 14.5264 36.3008 14.4678 35.627 14.4678C32.9316 14.4678 30.6611 15.2148 28.8154 16.709C26.9697 18.1738 26.0469 20.0049 26.0469 22.2021C26.0469 23.5791 26.4863 24.7363 27.3652 25.6738C28.2441 26.6113 29.3135 27.0801 30.5732 27.0801C31.1885 27.0801 31.7158 27.2998 32.1553 27.7393C32.5947 28.1494 32.8145 28.6475 32.8145 29.2334C32.8145 29.8193 32.5947 30.332 32.1553 30.7715C31.7158 31.1816 31.1885 31.3867 30.5732 31.3867C28.7275 31.3867 27.1162 30.9766 25.7393 30.1562C24.3916 29.3359 23.3809 28.2373 22.707 26.8604C21.9746 27.9443 21.4033 29.1309 20.9932 30.4199C20.583 31.709 20.3779 33.0127 20.3779 34.3311C20.3779 38.0518 21.4766 41.1865 23.6738 43.7354C25.9004 46.2549 28.8594 47.5146 32.5508 47.5146ZM66.4326 59.7314C68.8643 59.7314 70.8564 58.501 72.4092 56.04C73.9619 53.5791 74.7383 50.4297 74.7383 46.5918C74.7383 46.2695 74.7236 45.9473 74.6943 45.625C74.6943 45.2734 74.6943 44.9365 74.6943 44.6143C73.7861 44.9951 72.8047 45.2734 71.75 45.4492C70.6953 45.625 69.5674 45.6836 68.3662 45.625C67.7803 45.5664 67.2969 45.332 66.916 44.9219C66.5352 44.5117 66.3447 44.0283 66.3447 43.4717C66.3447 42.8857 66.5498 42.373 66.96 41.9336C67.3994 41.4941 67.8975 41.3037 68.4541 41.3623C70.915 41.5381 72.8926 41.0107 74.3867 39.7803C75.8809 38.5205 76.6279 36.7773 76.6279 34.5508C76.6279 32.5293 76.1592 30.7129 75.2217 29.1016C74.2842 27.4902 72.9951 26.2158 71.3545 25.2783C71.0908 27.7686 70.3438 29.8926 69.1133 31.6504C67.8828 33.4082 66.4326 34.9463 64.7627 36.2646C63.1221 37.583 61.4814 38.8281 59.8408 40C58.2295 41.1719 56.8818 42.417 55.7979 43.7354C54.7139 45.0537 54.1719 46.5918 54.1719 48.3496C54.1719 49.6094 54.582 50.6494 55.4023 51.4697C56.252 52.29 57.4238 52.7002 58.918 52.7002H59.665C60.0166 54.7803 60.8076 56.4795 62.0381 57.7979C63.2979 59.0869 64.7627 59.7314 66.4326 59.7314Z" fill="black" fill-opacity="0.4"/>
</svg>
