<svg width="89" height="105" viewBox="0 0 89 105" fill="none" xmlns="http://www.w3.org/2000/svg">
<path d="M51.0371 104.678C43.3613 104.678 37.2236 103.403 32.624 100.854C28.0537 98.3057 25.6074 94.7314 25.2852 90.1318L25.3291 89.8242L20.7588 90.2637C17.1846 90.6738 14.1523 89.9121 11.6621 87.9785C9.20117 86.0742 7.9707 83.1445 7.9707 79.1895V70.752C5.62695 70.1367 3.7959 68.9795 2.47754 67.2803C1.15918 65.5518 0.5 63.5449 0.5 61.2598C0.5 58.7988 1.24707 56.2646 2.74121 53.6572L8.10254 43.9893C8.04395 43.4326 8 42.8613 7.9707 42.2754C7.94141 41.6895 7.92676 41.0449 7.92676 40.3418C7.92676 34.2773 8.87891 28.7842 10.7832 23.8623C12.6875 18.9111 15.3975 14.6631 18.9131 11.1182C22.458 7.54395 26.6768 4.80469 31.5693 2.90039C36.4912 0.966797 41.9404 0 47.917 0C53.9229 0 59.3867 0.981445 64.3086 2.94434C69.2598 4.90723 73.5078 7.70508 77.0527 11.3379C80.5977 14.9707 83.3223 19.3213 85.2266 24.3896C87.1602 29.458 88.127 35.083 88.127 41.2646C88.127 46.5674 87.1602 51.5186 85.2266 56.1182C83.3223 60.7178 80.6562 64.5264 77.2285 67.5439V88.9893C77.2285 93.9404 74.8848 97.793 70.1973 100.547C65.5391 103.301 59.1523 104.678 51.0371 104.678ZM32.8438 46.7139C35.5391 46.7139 37.7363 45.9229 39.4355 44.3408C41.1348 42.7588 41.9844 40.7373 41.9844 38.2764C41.9844 36.5186 41.4863 35.1562 40.4902 34.1895C39.8164 33.5449 39.4795 32.8564 39.4795 32.124C39.4795 31.5674 39.6699 31.1133 40.0508 30.7617C40.4609 30.3809 40.959 30.1904 41.5449 30.1904C42.1895 30.1904 42.7314 30.3955 43.1709 30.8057C43.3174 30.9229 43.4346 31.0693 43.5225 31.2451C43.6396 31.4209 43.7275 31.582 43.7861 31.7285C45.5732 31.4941 46.9062 30.8789 47.7852 29.8828C48.6641 28.8574 49.1035 27.4951 49.1035 25.7959C49.1035 25.21 49.3086 24.7119 49.7188 24.3018C50.1289 23.8623 50.627 23.6426 51.2129 23.6426C51.7988 23.6426 52.2969 23.8623 52.707 24.3018C53.1172 24.7412 53.3223 25.2393 53.3223 25.7959C53.3516 31.04 50.8467 34.2334 45.8076 35.376C45.9541 35.8447 46.042 36.3428 46.0713 36.8701C46.1299 37.3682 46.1592 37.8662 46.1592 38.3643C46.1592 40.5908 45.6465 42.5684 44.6211 44.2969C43.5957 46.0254 42.1602 47.373 40.3145 48.3398C42.4824 49.4531 44.8555 50.0098 47.4336 50.0098C47.9902 50.0098 48.5762 49.9805 49.1914 49.9219C49.8359 49.8633 50.4658 49.7754 51.0811 49.6582C50.8467 48.9258 50.7295 48.252 50.7295 47.6367C50.7295 45.3223 51.3008 43.3447 52.4434 41.7041C53.5859 40.0342 55.0068 38.54 56.7061 37.2217C58.4053 35.874 60.1045 34.5703 61.8037 33.3105C63.5029 32.0215 64.9238 30.6152 66.0664 29.0918C67.2383 27.5684 67.8242 25.7666 67.8242 23.6865C67.8242 21.9873 67.4141 20.4492 66.5938 19.0723C65.8027 17.6953 64.7188 16.5967 63.3418 15.7764C61.9941 14.9561 60.4854 14.5459 58.8154 14.5459C57.9365 14.5459 57.3066 14.5605 56.9258 14.5898C56.5449 14.6191 56.2373 14.6631 56.0029 14.7217C55.0654 13.6963 53.9521 12.8906 52.6631 12.3047C51.4033 11.7188 50.1436 11.4258 48.8838 11.4258C46.6865 11.4258 44.8848 12.0557 43.4785 13.3154C42.1016 14.5459 41.3984 16.2012 41.3691 18.2812C41.3691 18.9258 41.1641 19.4531 40.7539 19.8633C40.373 20.2441 39.875 20.4346 39.2598 20.4346C38.5859 20.4346 38.0439 20.2148 37.6338 19.7754C37.2529 19.3359 37.0771 18.7939 37.1064 18.1494C37.1357 17.2412 37.2529 16.4502 37.458 15.7764C37.6924 15.0732 37.9414 14.4287 38.2051 13.8428C37.3555 13.7256 36.5938 13.667 35.9199 13.667C33.2246 13.667 30.9541 14.4141 29.1084 15.9082C27.2627 17.373 26.3398 19.2041 26.3398 21.4014C26.3398 22.7783 26.7793 23.9355 27.6582 24.873C28.5371 25.8105 29.6064 26.2793 30.8662 26.2793C31.4814 26.2793 32.0088 26.499 32.4482 26.9385C32.8877 27.3486 33.1074 27.8467 33.1074 28.4326C33.1074 29.0186 32.8877 29.5312 32.4482 29.9707C32.0088 30.3809 31.4814 30.5859 30.8662 30.5859C29.0205 30.5859 27.4092 30.1758 26.0322 29.3555C24.6846 28.5352 23.6738 27.4365 23 26.0596C22.2676 27.1436 21.6963 28.3301 21.2861 29.6191C20.876 30.9082 20.6709 32.2119 20.6709 33.5303C20.6709 37.251 21.7695 40.3857 23.9668 42.9346C26.1934 45.4541 29.1523 46.7139 32.8438 46.7139ZM66.7256 58.9307C69.1572 58.9307 71.1494 57.7002 72.7021 55.2393C74.2549 52.7783 75.0312 49.6289 75.0312 45.791C75.0312 45.4688 75.0166 45.1465 74.9873 44.8242C74.9873 44.4727 74.9873 44.1357 74.9873 43.8135C74.0791 44.1943 73.0977 44.4727 72.043 44.6484C70.9883 44.8242 69.8604 44.8828 68.6592 44.8242C68.0732 44.7656 67.5898 44.5312 67.209 44.1211C66.8281 43.7109 66.6377 43.2275 66.6377 42.6709C66.6377 42.085 66.8428 41.5723 67.2529 41.1328C67.6924 40.6934 68.1904 40.5029 68.7471 40.5615C71.208 40.7373 73.1855 40.21 74.6797 38.9795C76.1738 37.7197 76.9209 35.9766 76.9209 33.75C76.9209 31.7285 76.4521 29.9121 75.5146 28.3008C74.5771 26.6895 73.2881 25.415 71.6475 24.4775C71.3838 26.9678 70.6367 29.0918 69.4062 30.8496C68.1758 32.6074 66.7256 34.1455 65.0557 35.4639C63.415 36.7822 61.7744 38.0273 60.1338 39.1992C58.5225 40.3711 57.1748 41.6162 56.0908 42.9346C55.0068 44.2529 54.4648 45.791 54.4648 47.5488C54.4648 48.8086 54.875 49.8486 55.6953 50.6689C56.5449 51.4893 57.7168 51.8994 59.2109 51.8994H59.958C60.3096 53.9795 61.1006 55.6787 62.3311 56.9971C63.5908 58.2861 65.0557 58.9307 66.7256 58.9307Z" fill="black" fill-opacity="0.4"/>
</svg>
