<svg width="52" height="82" viewBox="0 0 52 82" fill="none" xmlns="http://www.w3.org/2000/svg">
<path d="M7.37012 81.6572C5.17285 81.6572 3.42969 81.042 2.14062 79.8115C0.851562 78.5811 0.207031 76.7939 0.207031 74.4502V73.5713C0.207031 70.9346 0.807617 68.2832 2.00879 65.6172C3.20996 62.9512 4.7334 60.3877 6.5791 57.9268C8.4248 55.4365 10.3291 53.1514 12.292 51.0713C14.2842 48.9619 16.042 47.1455 17.5654 45.6221C19.0889 44.1279 19.8213 42.6338 19.7627 41.1396C19.7041 39.6162 18.9717 38.166 17.5654 36.7891C16.042 35.2656 14.2842 33.4639 12.292 31.3838C10.3291 29.2744 8.4248 26.9893 6.5791 24.5283C4.7334 22.0674 3.20996 19.5039 2.00879 16.8379C0.807617 14.1719 0.207031 11.5059 0.207031 8.83984V8.09277C0.207031 5.71973 0.851562 3.91797 2.14062 2.6875C3.42969 1.45703 5.17285 0.841797 7.37012 0.841797H44.5479C46.7744 0.841797 48.5176 1.45703 49.7773 2.6875C51.0664 3.91797 51.7109 5.71973 51.7109 8.09277V8.83984C51.7109 11.5059 51.1104 14.1719 49.9092 16.8379C48.708 19.5039 47.1846 22.0674 45.3389 24.5283C43.4932 26.9893 41.5742 29.2744 39.582 31.3838C37.6191 33.4639 35.876 35.2656 34.3525 36.7891C32.9756 38.166 32.2578 39.6162 32.1992 41.1396C32.1406 42.6338 32.8584 44.1279 34.3525 45.6221C35.876 47.1455 37.6191 48.9619 39.582 51.0713C41.5742 53.1514 43.4932 55.4365 45.3389 57.9268C47.1846 60.3877 48.708 62.9512 49.9092 65.6172C51.1104 68.2832 51.7109 70.9346 51.7109 73.5713V74.4502C51.7109 76.7939 51.0664 78.5811 49.7773 79.8115C48.5176 81.042 46.7744 81.6572 44.5479 81.6572H7.37012ZM10.7539 75.6807H41.1641C42.1309 75.6807 42.7021 75.2559 42.8779 74.4062C43.083 73.5859 42.8633 72.8828 42.2188 72.2969L28.2002 58.9375C27.9365 58.7031 27.7461 58.498 27.6289 58.3223C27.541 58.1465 27.4971 57.8828 27.4971 57.5312V38.0635C27.4971 37.0674 27.6143 36.2617 27.8486 35.6465C28.1123 35.0312 28.6104 34.4014 29.3428 33.7568C30.8369 32.4971 32.5068 31.0469 34.3525 29.4062C36.1982 27.7656 37.7949 26.2275 39.1426 24.792C39.7285 24.2061 39.9043 23.6348 39.6699 23.0781C39.4648 22.5215 39.0107 22.2432 38.3076 22.2432H13.6104C12.9365 22.2432 12.4824 22.5215 12.248 23.0781C12.043 23.6348 12.2188 24.2061 12.7754 24.792C14.123 26.2275 15.7197 27.7656 17.5654 29.4062C19.4404 31.0469 21.1104 32.4971 22.5752 33.7568C23.3369 34.4014 23.835 35.0312 24.0693 35.6465C24.333 36.2617 24.4648 37.0674 24.4648 38.0635V57.5312C24.4648 57.8828 24.4062 58.1465 24.2891 58.3223C24.1719 58.498 23.9814 58.7031 23.7178 58.9375L9.69922 72.2969C9.05469 72.8828 8.83496 73.5859 9.04004 74.4062C9.24512 75.2559 9.81641 75.6807 10.7539 75.6807Z" fill="black" fill-opacity="0.4"/>
</svg>
