<svg width="88" height="105" viewBox="0 0 88 105" fill="none" xmlns="http://www.w3.org/2000/svg">
<path d="M50.5371 104.678C42.8613 104.678 36.7236 103.403 32.124 100.854C27.5537 98.3057 25.1074 94.7314 24.7852 90.1318L24.8291 89.8242L20.2588 90.2637C16.6846 90.6738 13.6523 89.9121 11.1621 87.9785C8.70117 86.0742 7.4707 83.1445 7.4707 79.1895V70.752C5.12695 70.1367 3.2959 68.9795 1.97754 67.2803C0.65918 65.5518 0 63.5449 0 61.2598C0 58.7988 0.74707 56.2646 2.24121 53.6572L7.60254 43.9893C7.54395 43.4326 7.5 42.8613 7.4707 42.2754C7.44141 41.6895 7.42676 41.0449 7.42676 40.3418C7.42676 34.2773 8.37891 28.7842 10.2832 23.8623C12.1875 18.9111 14.8975 14.6631 18.4131 11.1182C21.958 7.54395 26.1768 4.80469 31.0693 2.90039C35.9912 0.966797 41.4404 0 47.417 0C53.4229 0 58.8867 0.981445 63.8086 2.94434C68.7598 4.90723 73.0078 7.70508 76.5527 11.3379C80.0977 14.9707 82.8223 19.3213 84.7266 24.3896C86.6602 29.458 87.627 35.083 87.627 41.2646C87.627 46.5674 86.6602 51.5186 84.7266 56.1182C82.8223 60.7178 80.1562 64.5264 76.7285 67.5439V88.9893C76.7285 93.9404 74.3848 97.793 69.6973 100.547C65.0391 103.301 58.6523 104.678 50.5371 104.678ZM32.3438 46.7139C35.0391 46.7139 37.2363 45.9229 38.9355 44.3408C40.6348 42.7588 41.4844 40.7373 41.4844 38.2764C41.4844 36.5186 40.9863 35.1562 39.9902 34.1895C39.3164 33.5449 38.9795 32.8564 38.9795 32.124C38.9795 31.5674 39.1699 31.1133 39.5508 30.7617C39.9609 30.3809 40.459 30.1904 41.0449 30.1904C41.6895 30.1904 42.2314 30.3955 42.6709 30.8057C42.8174 30.9229 42.9346 31.0693 43.0225 31.2451C43.1396 31.4209 43.2275 31.582 43.2861 31.7285C45.0732 31.4941 46.4062 30.8789 47.2852 29.8828C48.1641 28.8574 48.6035 27.4951 48.6035 25.7959C48.6035 25.21 48.8086 24.7119 49.2188 24.3018C49.6289 23.8623 50.127 23.6426 50.7129 23.6426C51.2988 23.6426 51.7969 23.8623 52.207 24.3018C52.6172 24.7412 52.8223 25.2393 52.8223 25.7959C52.8516 31.04 50.3467 34.2334 45.3076 35.376C45.4541 35.8447 45.542 36.3428 45.5713 36.8701C45.6299 37.3682 45.6592 37.8662 45.6592 38.3643C45.6592 40.5908 45.1465 42.5684 44.1211 44.2969C43.0957 46.0254 41.6602 47.373 39.8145 48.3398C41.9824 49.4531 44.3555 50.0098 46.9336 50.0098C47.4902 50.0098 48.0762 49.9805 48.6914 49.9219C49.3359 49.8633 49.9658 49.7754 50.5811 49.6582C50.3467 48.9258 50.2295 48.252 50.2295 47.6367C50.2295 45.3223 50.8008 43.3447 51.9434 41.7041C53.0859 40.0342 54.5068 38.54 56.2061 37.2217C57.9053 35.874 59.6045 34.5703 61.3037 33.3105C63.0029 32.0215 64.4238 30.6152 65.5664 29.0918C66.7383 27.5684 67.3242 25.7666 67.3242 23.6865C67.3242 21.9873 66.9141 20.4492 66.0938 19.0723C65.3027 17.6953 64.2188 16.5967 62.8418 15.7764C61.4941 14.9561 59.9854 14.5459 58.3154 14.5459C57.4365 14.5459 56.8066 14.5605 56.4258 14.5898C56.0449 14.6191 55.7373 14.6631 55.5029 14.7217C54.5654 13.6963 53.4521 12.8906 52.1631 12.3047C50.9033 11.7188 49.6436 11.4258 48.3838 11.4258C46.1865 11.4258 44.3848 12.0557 42.9785 13.3154C41.6016 14.5459 40.8984 16.2012 40.8691 18.2812C40.8691 18.9258 40.6641 19.4531 40.2539 19.8633C39.873 20.2441 39.375 20.4346 38.7598 20.4346C38.0859 20.4346 37.5439 20.2148 37.1338 19.7754C36.7529 19.3359 36.5771 18.7939 36.6064 18.1494C36.6357 17.2412 36.7529 16.4502 36.958 15.7764C37.1924 15.0732 37.4414 14.4287 37.7051 13.8428C36.8555 13.7256 36.0938 13.667 35.4199 13.667C32.7246 13.667 30.4541 14.4141 28.6084 15.9082C26.7627 17.373 25.8398 19.2041 25.8398 21.4014C25.8398 22.7783 26.2793 23.9355 27.1582 24.873C28.0371 25.8105 29.1064 26.2793 30.3662 26.2793C30.9814 26.2793 31.5088 26.499 31.9482 26.9385C32.3877 27.3486 32.6074 27.8467 32.6074 28.4326C32.6074 29.0186 32.3877 29.5312 31.9482 29.9707C31.5088 30.3809 30.9814 30.5859 30.3662 30.5859C28.5205 30.5859 26.9092 30.1758 25.5322 29.3555C24.1846 28.5352 23.1738 27.4365 22.5 26.0596C21.7676 27.1436 21.1963 28.3301 20.7861 29.6191C20.376 30.9082 20.1709 32.2119 20.1709 33.5303C20.1709 37.251 21.2695 40.3857 23.4668 42.9346C25.6934 45.4541 28.6523 46.7139 32.3438 46.7139ZM66.2256 58.9307C68.6572 58.9307 70.6494 57.7002 72.2021 55.2393C73.7549 52.7783 74.5312 49.6289 74.5312 45.791C74.5312 45.4688 74.5166 45.1465 74.4873 44.8242C74.4873 44.4727 74.4873 44.1357 74.4873 43.8135C73.5791 44.1943 72.5977 44.4727 71.543 44.6484C70.4883 44.8242 69.3604 44.8828 68.1592 44.8242C67.5732 44.7656 67.0898 44.5312 66.709 44.1211C66.3281 43.7109 66.1377 43.2275 66.1377 42.6709C66.1377 42.085 66.3428 41.5723 66.7529 41.1328C67.1924 40.6934 67.6904 40.5029 68.2471 40.5615C70.708 40.7373 72.6855 40.21 74.1797 38.9795C75.6738 37.7197 76.4209 35.9766 76.4209 33.75C76.4209 31.7285 75.9521 29.9121 75.0146 28.3008C74.0771 26.6895 72.7881 25.415 71.1475 24.4775C70.8838 26.9678 70.1367 29.0918 68.9062 30.8496C67.6758 32.6074 66.2256 34.1455 64.5557 35.4639C62.915 36.7822 61.2744 38.0273 59.6338 39.1992C58.0225 40.3711 56.6748 41.6162 55.5908 42.9346C54.5068 44.2529 53.9648 45.791 53.9648 47.5488C53.9648 48.8086 54.375 49.8486 55.1953 50.6689C56.0449 51.4893 57.2168 51.8994 58.7109 51.8994H59.458C59.8096 53.9795 60.6006 55.6787 61.8311 56.9971C63.0908 58.2861 64.5557 58.9307 66.2256 58.9307Z" fill="black" fill-opacity="0.4"/>
</svg>
