<svg width="52" height="81" viewBox="0 0 52 81" fill="none" xmlns="http://www.w3.org/2000/svg">
<path d="M7.16309 80.8154C4.96582 80.8154 3.22266 80.2002 1.93359 78.9697C0.644531 77.7393 0 75.9521 0 73.6084V72.7295C0 70.0928 0.600586 67.4414 1.80176 64.7754C3.00293 62.1094 4.52637 59.5459 6.37207 57.085C8.21777 54.5947 10.1221 52.3096 12.085 50.2295C14.0771 48.1201 15.835 46.3037 17.3584 44.7803C18.8818 43.2861 19.6143 41.792 19.5557 40.2979C19.4971 38.7744 18.7646 37.3242 17.3584 35.9473C15.835 34.4238 14.0771 32.6221 12.085 30.542C10.1221 28.4326 8.21777 26.1475 6.37207 23.6865C4.52637 21.2256 3.00293 18.6621 1.80176 15.9961C0.600586 13.3301 0 10.6641 0 7.99805V7.25098C0 4.87793 0.644531 3.07617 1.93359 1.8457C3.22266 0.615234 4.96582 0 7.16309 0H44.3408C46.5674 0 48.3105 0.615234 49.5703 1.8457C50.8594 3.07617 51.5039 4.87793 51.5039 7.25098V7.99805C51.5039 10.6641 50.9033 13.3301 49.7021 15.9961C48.501 18.6621 46.9775 21.2256 45.1318 23.6865C43.2861 26.1475 41.3672 28.4326 39.375 30.542C37.4121 32.6221 35.6689 34.4238 34.1455 35.9473C32.7686 37.3242 32.0508 38.7744 31.9922 40.2979C31.9336 41.792 32.6514 43.2861 34.1455 44.7803C35.6689 46.3037 37.4121 48.1201 39.375 50.2295C41.3672 52.3096 43.2861 54.5947 45.1318 57.085C46.9775 59.5459 48.501 62.1094 49.7021 64.7754C50.9033 67.4414 51.5039 70.0928 51.5039 72.7295V73.6084C51.5039 75.9521 50.8594 77.7393 49.5703 78.9697C48.3105 80.2002 46.5674 80.8154 44.3408 80.8154H7.16309ZM10.5469 74.8389H40.957C41.9238 74.8389 42.4951 74.4141 42.6709 73.5645C42.876 72.7441 42.6562 72.041 42.0117 71.4551L27.9932 58.0957C27.7295 57.8613 27.5391 57.6562 27.4219 57.4805C27.334 57.3047 27.29 57.041 27.29 56.6895V37.2217C27.29 36.2256 27.4072 35.4199 27.6416 34.8047C27.9053 34.1895 28.4033 33.5596 29.1357 32.915C30.6299 31.6553 32.2998 30.2051 34.1455 28.5645C35.9912 26.9238 37.5879 25.3857 38.9355 23.9502C39.5215 23.3643 39.6973 22.793 39.4629 22.2363C39.2578 21.6797 38.8037 21.4014 38.1006 21.4014H13.4033C12.7295 21.4014 12.2754 21.6797 12.041 22.2363C11.8359 22.793 12.0117 23.3643 12.5684 23.9502C13.916 25.3857 15.5127 26.9238 17.3584 28.5645C19.2334 30.2051 20.9033 31.6553 22.3682 32.915C23.1299 33.5596 23.6279 34.1895 23.8623 34.8047C24.126 35.4199 24.2578 36.2256 24.2578 37.2217V56.6895C24.2578 57.041 24.1992 57.3047 24.082 57.4805C23.9648 57.6562 23.7744 57.8613 23.5107 58.0957L9.49219 71.4551C8.84766 72.041 8.62793 72.7441 8.83301 73.5645C9.03809 74.4141 9.60938 74.8389 10.5469 74.8389Z" fill="black" fill-opacity="0.4"/>
</svg>
