<svg width="53" height="81" viewBox="0 0 53 81" fill="none" xmlns="http://www.w3.org/2000/svg">
<path d="M7.66309 80.8154C5.46582 80.8154 3.72266 80.2002 2.43359 78.9697C1.14453 77.7393 0.5 75.9521 0.5 73.6084V72.7295C0.5 70.0928 1.10059 67.4414 2.30176 64.7754C3.50293 62.1094 5.02637 59.5459 6.87207 57.085C8.71777 54.5947 10.6221 52.3096 12.585 50.2295C14.5771 48.1201 16.335 46.3037 17.8584 44.7803C19.3818 43.2861 20.1143 41.792 20.0557 40.2979C19.9971 38.7744 19.2646 37.3242 17.8584 35.9473C16.335 34.4238 14.5771 32.6221 12.585 30.542C10.6221 28.4326 8.71777 26.1475 6.87207 23.6865C5.02637 21.2256 3.50293 18.6621 2.30176 15.9961C1.10059 13.3301 0.5 10.6641 0.5 7.99805V7.25098C0.5 4.87793 1.14453 3.07617 2.43359 1.8457C3.72266 0.615234 5.46582 0 7.66309 0H44.8408C47.0674 0 48.8105 0.615234 50.0703 1.8457C51.3594 3.07617 52.0039 4.87793 52.0039 7.25098V7.99805C52.0039 10.6641 51.4033 13.3301 50.2021 15.9961C49.001 18.6621 47.4775 21.2256 45.6318 23.6865C43.7861 26.1475 41.8672 28.4326 39.875 30.542C37.9121 32.6221 36.1689 34.4238 34.6455 35.9473C33.2686 37.3242 32.5508 38.7744 32.4922 40.2979C32.4336 41.792 33.1514 43.2861 34.6455 44.7803C36.1689 46.3037 37.9121 48.1201 39.875 50.2295C41.8672 52.3096 43.7861 54.5947 45.6318 57.085C47.4775 59.5459 49.001 62.1094 50.2021 64.7754C51.4033 67.4414 52.0039 70.0928 52.0039 72.7295V73.6084C52.0039 75.9521 51.3594 77.7393 50.0703 78.9697C48.8105 80.2002 47.0674 80.8154 44.8408 80.8154H7.66309ZM11.0469 74.8389H41.457C42.4238 74.8389 42.9951 74.4141 43.1709 73.5645C43.376 72.7441 43.1562 72.041 42.5117 71.4551L28.4932 58.0957C28.2295 57.8613 28.0391 57.6562 27.9219 57.4805C27.834 57.3047 27.79 57.041 27.79 56.6895V37.2217C27.79 36.2256 27.9072 35.4199 28.1416 34.8047C28.4053 34.1895 28.9033 33.5596 29.6357 32.915C31.1299 31.6553 32.7998 30.2051 34.6455 28.5645C36.4912 26.9238 38.0879 25.3857 39.4355 23.9502C40.0215 23.3643 40.1973 22.793 39.9629 22.2363C39.7578 21.6797 39.3037 21.4014 38.6006 21.4014H13.9033C13.2295 21.4014 12.7754 21.6797 12.541 22.2363C12.3359 22.793 12.5117 23.3643 13.0684 23.9502C14.416 25.3857 16.0127 26.9238 17.8584 28.5645C19.7334 30.2051 21.4033 31.6553 22.8682 32.915C23.6299 33.5596 24.1279 34.1895 24.3623 34.8047C24.626 35.4199 24.7578 36.2256 24.7578 37.2217V56.6895C24.7578 57.041 24.6992 57.3047 24.582 57.4805C24.4648 57.6562 24.2744 57.8613 24.0107 58.0957L9.99219 71.4551C9.34766 72.041 9.12793 72.7441 9.33301 73.5645C9.53809 74.4141 10.1094 74.8389 11.0469 74.8389Z" fill="black" fill-opacity="0.4"/>
</svg>
