<svg width="106" height="59" viewBox="0 0 106 59" fill="none" xmlns="http://www.w3.org/2000/svg">
<path d="M35.6719 57.1768C34.5879 57.1768 33.6504 56.7959 32.8594 56.0342C32.0977 55.2432 31.7168 54.3203 31.7168 53.2656C31.7168 52.2109 32.0977 51.3027 32.8594 50.541C33.6504 49.7793 34.5879 49.3984 35.6719 49.3984H70.8281C71.9121 49.3984 72.835 49.7793 73.5967 50.541C74.3877 51.3027 74.7832 52.2109 74.7832 53.2656C74.7832 54.3203 74.3877 55.2432 73.5967 56.0342C72.835 56.7959 71.9121 57.1768 70.8281 57.1768H35.6719ZM6.49219 58.5391C4.93945 58.5391 3.60645 57.9971 2.49316 56.9131C1.40918 55.7998 0.867188 54.4668 0.867188 52.9141C0.867188 51.3613 1.40918 50.043 2.49316 48.959C3.60645 47.8457 4.93945 47.2891 6.49219 47.2891C8.04492 47.2891 9.36328 47.8457 10.4473 48.959C11.5605 50.043 12.1172 51.3613 12.1172 52.9141C12.1172 54.4668 11.5605 55.7998 10.4473 56.9131C9.36328 57.9971 8.04492 58.5391 6.49219 58.5391ZM18.4453 26.5469C16.8926 26.5469 15.5742 26.0049 14.4902 24.9209C13.4062 23.8076 12.8643 22.4746 12.8643 20.9219C12.8643 19.3691 13.4062 18.0508 14.4902 16.9668C15.5742 15.8535 16.8926 15.2969 18.4453 15.2969C20.0273 15.2969 21.3604 15.8535 22.4443 16.9668C23.5283 18.0508 24.0703 19.3691 24.0703 20.9219C24.0703 22.4746 23.5283 23.8076 22.4443 24.9209C21.3604 26.0049 20.0273 26.5469 18.4453 26.5469ZM53.25 11.3857C51.6973 11.3857 50.3643 10.8438 49.251 9.75977C48.167 8.64648 47.625 7.31348 47.625 5.76074C47.625 4.20801 48.167 2.88965 49.251 1.80566C50.3643 0.692383 51.6973 0.135742 53.25 0.135742C54.8027 0.135742 56.1211 0.692383 57.2051 1.80566C58.3184 2.88965 58.875 4.20801 58.875 5.76074C58.875 7.31348 58.3184 8.64648 57.2051 9.75977C56.1211 10.8438 54.8027 11.3857 53.25 11.3857ZM88.0547 26.5469C86.502 26.5469 85.1689 26.0049 84.0557 24.9209C82.9717 23.8076 82.4297 22.4746 82.4297 20.9219C82.4297 19.3691 82.9717 18.0508 84.0557 16.9668C85.1689 15.8535 86.502 15.2969 88.0547 15.2969C89.6074 15.2969 90.9258 15.8535 92.0098 16.9668C93.123 18.0508 93.6797 19.3691 93.6797 20.9219C93.6797 22.4746 93.123 23.8076 92.0098 24.9209C90.9258 26.0049 89.6074 26.5469 88.0547 26.5469ZM100.008 58.5391C98.4551 58.5391 97.1221 57.9971 96.0088 56.9131C94.9248 55.7998 94.3828 54.4668 94.3828 52.9141C94.3828 51.3613 94.9248 50.043 96.0088 48.959C97.1221 47.8457 98.4551 47.2891 100.008 47.2891C101.59 47.2891 102.923 47.8457 104.007 48.959C105.091 50.043 105.633 51.3613 105.633 52.9141C105.633 54.4668 105.091 55.7998 104.007 56.9131C102.923 57.9971 101.59 58.5391 100.008 58.5391Z" fill="white" fill-opacity="0.4"/>
</svg>
