<svg width="105" height="59" viewBox="0 0 105 59" fill="none" xmlns="http://www.w3.org/2000/svg">
<path d="M34.8047 57.041C33.7207 57.041 32.7832 56.6602 31.9922 55.8984C31.2305 55.1074 30.8496 54.1846 30.8496 53.1299C30.8496 52.0752 31.2305 51.167 31.9922 50.4053C32.7832 49.6436 33.7207 49.2627 34.8047 49.2627H69.9609C71.0449 49.2627 71.9678 49.6436 72.7295 50.4053C73.5205 51.167 73.916 52.0752 73.916 53.1299C73.916 54.1846 73.5205 55.1074 72.7295 55.8984C71.9678 56.6602 71.0449 57.041 69.9609 57.041H34.8047ZM5.625 58.4033C4.07227 58.4033 2.73926 57.8613 1.62598 56.7773C0.541992 55.6641 0 54.3311 0 52.7783C0 51.2256 0.541992 49.9072 1.62598 48.8232C2.73926 47.71 4.07227 47.1533 5.625 47.1533C7.17773 47.1533 8.49609 47.71 9.58008 48.8232C10.6934 49.9072 11.25 51.2256 11.25 52.7783C11.25 54.3311 10.6934 55.6641 9.58008 56.7773C8.49609 57.8613 7.17773 58.4033 5.625 58.4033ZM17.5781 26.4111C16.0254 26.4111 14.707 25.8691 13.623 24.7852C12.5391 23.6719 11.9971 22.3389 11.9971 20.7861C11.9971 19.2334 12.5391 17.915 13.623 16.8311C14.707 15.7178 16.0254 15.1611 17.5781 15.1611C19.1602 15.1611 20.4932 15.7178 21.5771 16.8311C22.6611 17.915 23.2031 19.2334 23.2031 20.7861C23.2031 22.3389 22.6611 23.6719 21.5771 24.7852C20.4932 25.8691 19.1602 26.4111 17.5781 26.4111ZM52.3828 11.25C50.8301 11.25 49.4971 10.708 48.3838 9.62402C47.2998 8.51074 46.7578 7.17773 46.7578 5.625C46.7578 4.07227 47.2998 2.75391 48.3838 1.66992C49.4971 0.556641 50.8301 0 52.3828 0C53.9355 0 55.2539 0.556641 56.3379 1.66992C57.4512 2.75391 58.0078 4.07227 58.0078 5.625C58.0078 7.17773 57.4512 8.51074 56.3379 9.62402C55.2539 10.708 53.9355 11.25 52.3828 11.25ZM87.1875 26.4111C85.6348 26.4111 84.3018 25.8691 83.1885 24.7852C82.1045 23.6719 81.5625 22.3389 81.5625 20.7861C81.5625 19.2334 82.1045 17.915 83.1885 16.8311C84.3018 15.7178 85.6348 15.1611 87.1875 15.1611C88.7402 15.1611 90.0586 15.7178 91.1426 16.8311C92.2559 17.915 92.8125 19.2334 92.8125 20.7861C92.8125 22.3389 92.2559 23.6719 91.1426 24.7852C90.0586 25.8691 88.7402 26.4111 87.1875 26.4111ZM99.1406 58.4033C97.5879 58.4033 96.2549 57.8613 95.1416 56.7773C94.0576 55.6641 93.5156 54.3311 93.5156 52.7783C93.5156 51.2256 94.0576 49.9072 95.1416 48.8232C96.2549 47.71 97.5879 47.1533 99.1406 47.1533C100.723 47.1533 102.056 47.71 103.14 48.8232C104.224 49.9072 104.766 51.2256 104.766 52.7783C104.766 54.3311 104.224 55.6641 103.14 56.7773C102.056 57.8613 100.723 58.4033 99.1406 58.4033Z" fill="white" fill-opacity="0.4"/>
</svg>
