<svg width="106" height="59" viewBox="0 0 106 59" fill="none" xmlns="http://www.w3.org/2000/svg">
<path d="M35.3047 57.041C34.2207 57.041 33.2832 56.6602 32.4922 55.8984C31.7305 55.1074 31.3496 54.1846 31.3496 53.1299C31.3496 52.0752 31.7305 51.167 32.4922 50.4053C33.2832 49.6436 34.2207 49.2627 35.3047 49.2627H70.4609C71.5449 49.2627 72.4678 49.6436 73.2295 50.4053C74.0205 51.167 74.416 52.0752 74.416 53.1299C74.416 54.1846 74.0205 55.1074 73.2295 55.8984C72.4678 56.6602 71.5449 57.041 70.4609 57.041H35.3047ZM6.125 58.4033C4.57227 58.4033 3.23926 57.8613 2.12598 56.7773C1.04199 55.6641 0.5 54.3311 0.5 52.7783C0.5 51.2256 1.04199 49.9072 2.12598 48.8232C3.23926 47.71 4.57227 47.1533 6.125 47.1533C7.67773 47.1533 8.99609 47.71 10.0801 48.8232C11.1934 49.9072 11.75 51.2256 11.75 52.7783C11.75 54.3311 11.1934 55.6641 10.0801 56.7773C8.99609 57.8613 7.67773 58.4033 6.125 58.4033ZM18.0781 26.4111C16.5254 26.4111 15.207 25.8691 14.123 24.7852C13.0391 23.6719 12.4971 22.3389 12.4971 20.7861C12.4971 19.2334 13.0391 17.915 14.123 16.8311C15.207 15.7178 16.5254 15.1611 18.0781 15.1611C19.6602 15.1611 20.9932 15.7178 22.0771 16.8311C23.1611 17.915 23.7031 19.2334 23.7031 20.7861C23.7031 22.3389 23.1611 23.6719 22.0771 24.7852C20.9932 25.8691 19.6602 26.4111 18.0781 26.4111ZM52.8828 11.25C51.3301 11.25 49.9971 10.708 48.8838 9.62402C47.7998 8.51074 47.2578 7.17773 47.2578 5.625C47.2578 4.07227 47.7998 2.75391 48.8838 1.66992C49.9971 0.556641 51.3301 0 52.8828 0C54.4355 0 55.7539 0.556641 56.8379 1.66992C57.9512 2.75391 58.5078 4.07227 58.5078 5.625C58.5078 7.17773 57.9512 8.51074 56.8379 9.62402C55.7539 10.708 54.4355 11.25 52.8828 11.25ZM87.6875 26.4111C86.1348 26.4111 84.8018 25.8691 83.6885 24.7852C82.6045 23.6719 82.0625 22.3389 82.0625 20.7861C82.0625 19.2334 82.6045 17.915 83.6885 16.8311C84.8018 15.7178 86.1348 15.1611 87.6875 15.1611C89.2402 15.1611 90.5586 15.7178 91.6426 16.8311C92.7559 17.915 93.3125 19.2334 93.3125 20.7861C93.3125 22.3389 92.7559 23.6719 91.6426 24.7852C90.5586 25.8691 89.2402 26.4111 87.6875 26.4111ZM99.6406 58.4033C98.0879 58.4033 96.7549 57.8613 95.6416 56.7773C94.5576 55.6641 94.0156 54.3311 94.0156 52.7783C94.0156 51.2256 94.5576 49.9072 95.6416 48.8232C96.7549 47.71 98.0879 47.1533 99.6406 47.1533C101.223 47.1533 102.556 47.71 103.64 48.8232C104.724 49.9072 105.266 51.2256 105.266 52.7783C105.266 54.3311 104.724 55.6641 103.64 56.7773C102.556 57.8613 101.223 58.4033 99.6406 58.4033Z" fill="white" fill-opacity="0.4"/>
</svg>
